<svg width="814.57" height="88.067" viewBox="0 0 814.57 88.067" xmlns="http://www.w3.org/2000/svg"><g id="svgGroup" stroke-linecap="round" fill-rule="evenodd" font-size="9pt" stroke="#000000" stroke-width="0.4mm" fill="#000000" style="stroke:#000000;stroke-width:0.4mm;fill:#000000"><path d="M 555.059 86.895 L 542.637 86.895 L 517.969 15.352 L 517.441 15.352 Q 517.617 17.754 517.852 21.914 Q 518.086 26.074 518.262 30.821 Q 518.438 35.567 518.438 39.903 L 518.438 86.895 L 505.664 86.895 L 505.664 1.231 L 525.41 1.231 L 549.141 69.61 L 549.492 69.61 L 574.043 1.231 L 593.73 1.231 L 593.73 86.895 L 580.313 86.895 L 580.313 39.199 Q 580.313 35.274 580.459 30.703 Q 580.605 26.133 580.811 22.031 Q 581.016 17.93 581.133 15.469 L 580.664 15.469 L 555.059 86.895 Z M 71.484 1.231 L 71.484 86.895 L 54.199 86.895 L 12.246 18.516 L 11.719 18.516 Q 11.953 21.973 12.158 25.84 Q 12.363 29.707 12.51 33.809 Q 12.656 37.91 12.773 42.129 L 12.773 86.895 L 0 86.895 L 0 1.231 L 17.168 1.231 L 59.063 69.141 L 59.473 69.141 Q 59.355 66.153 59.18 62.285 Q 59.004 58.418 58.857 54.287 Q 58.711 50.156 58.652 46.289 L 58.652 1.231 L 71.484 1.231 Z M 429.023 1.231 L 453.105 1.231 Q 464.18 1.231 471.416 3.926 Q 478.652 6.621 482.197 12.129 Q 485.742 17.637 485.742 26.133 Q 485.742 32.461 483.398 36.914 Q 481.055 41.367 477.246 44.297 Q 473.438 47.227 469.102 48.985 L 493.418 86.895 L 477.539 86.895 L 456.855 52.559 L 443.086 52.559 L 443.086 86.895 L 429.023 86.895 L 429.023 1.231 Z M 410.625 72.188 L 410.625 84.141 Q 405.41 86.192 400.078 87.129 Q 394.746 88.067 387.773 88.067 Q 374.648 88.067 366.006 82.617 Q 357.363 77.168 353.115 67.266 Q 348.867 57.364 348.867 44.063 Q 348.867 34.336 351.563 26.25 Q 354.258 18.164 359.414 12.276 Q 364.57 6.387 372.158 3.194 Q 379.746 0 389.531 0 Q 395.977 0 402.217 1.436 Q 408.457 2.871 413.789 5.508 L 408.867 17.11 Q 404.414 15 399.551 13.477 Q 394.688 11.953 389.473 11.953 Q 383.32 11.953 378.486 14.18 Q 373.652 16.406 370.313 20.596 Q 366.973 24.785 365.215 30.733 Q 363.457 36.68 363.457 44.121 Q 363.457 54.082 366.27 61.26 Q 369.082 68.438 374.824 72.276 Q 380.566 76.114 389.355 76.114 Q 394.805 76.114 399.961 75.059 Q 405.117 74.004 410.625 72.188 Z M 715.43 86.895 L 700.488 86.895 L 692.109 63.106 L 659.355 63.106 L 650.977 86.895 L 636.152 86.895 L 668.027 0.879 L 683.613 0.879 L 715.43 86.895 Z M 146.191 50.215 L 146.191 57.598 L 102.891 57.598 Q 103.125 67.031 107.959 72.129 Q 112.793 77.227 121.523 77.227 Q 127.734 77.227 132.686 76.026 Q 137.637 74.824 142.91 72.481 L 142.91 83.672 Q 138.047 85.957 133.008 87.012 Q 127.969 88.067 120.938 88.067 Q 111.387 88.067 104.15 84.346 Q 96.914 80.625 92.842 73.242 Q 88.77 65.86 88.77 54.903 Q 88.77 44.004 92.461 36.387 Q 96.152 28.77 102.832 24.785 Q 109.512 20.801 118.418 20.801 Q 127.09 20.801 133.301 24.375 Q 139.512 27.949 142.852 34.512 Q 146.191 41.074 146.191 50.215 Z M 215.332 50.215 L 215.332 57.598 L 172.031 57.598 Q 172.266 67.031 177.1 72.129 Q 181.934 77.227 190.664 77.227 Q 196.875 77.227 201.826 76.026 Q 206.777 74.824 212.051 72.481 L 212.051 83.672 Q 207.188 85.957 202.148 87.012 Q 197.109 88.067 190.078 88.067 Q 180.527 88.067 173.291 84.346 Q 166.055 80.625 161.982 73.242 Q 157.91 65.86 157.91 54.903 Q 157.91 44.004 161.602 36.387 Q 165.293 28.77 171.973 24.785 Q 178.652 20.801 187.559 20.801 Q 196.23 20.801 202.441 24.375 Q 208.652 27.949 211.992 34.512 Q 215.332 41.074 215.332 50.215 Z M 265.137 75.235 L 265.137 85.664 Q 262.852 86.66 259.219 87.364 Q 255.586 88.067 251.66 88.067 Q 246.152 88.067 241.758 86.221 Q 237.363 84.375 234.785 79.864 Q 232.207 75.352 232.207 67.383 L 232.207 32.52 L 223.359 32.52 L 223.359 26.367 L 232.852 21.504 L 237.363 7.617 L 246.035 7.617 L 246.035 22.031 L 264.609 22.031 L 264.609 32.52 L 246.035 32.52 L 246.035 67.207 Q 246.035 72.129 248.496 74.531 Q 250.957 76.934 255 76.934 Q 257.695 76.934 260.332 76.436 Q 262.969 75.938 265.137 75.235 Z M 726.738 1.231 L 751.641 1.231 Q 768.223 1.231 775.84 8.028 Q 783.457 14.824 783.457 27.071 Q 783.457 32.637 781.729 37.647 Q 780 42.656 776.074 46.494 Q 772.148 50.332 765.732 52.559 Q 759.316 54.785 749.941 54.785 L 740.801 54.785 L 740.801 86.895 L 726.738 86.895 L 726.738 1.231 Z M 335.742 54.317 Q 335.742 62.403 333.633 68.672 Q 331.523 74.942 327.48 79.248 Q 323.438 83.555 317.754 85.811 Q 312.07 88.067 304.922 88.067 Q 298.242 88.067 292.676 85.811 Q 287.109 83.555 283.037 79.248 Q 278.965 74.942 276.738 68.672 Q 274.512 62.403 274.512 54.317 Q 274.512 43.594 278.232 36.123 Q 281.953 28.653 288.867 24.727 Q 295.781 20.801 305.332 20.801 Q 314.297 20.801 321.152 24.727 Q 328.008 28.653 331.875 36.153 Q 335.742 43.653 335.742 54.317 Z M 814.57 86.895 L 800.508 86.895 L 800.508 1.231 L 814.57 1.231 L 814.57 86.895 Z M 288.691 54.317 Q 288.691 43.594 292.617 37.852 Q 296.543 32.11 305.098 32.11 Q 310.898 32.11 314.531 34.717 Q 318.164 37.324 319.863 42.276 Q 321.563 47.227 321.563 54.317 Q 321.563 61.406 319.863 66.446 Q 318.164 71.485 314.531 74.151 Q 310.898 76.817 305.156 76.817 Q 299.414 76.817 295.781 74.151 Q 292.148 71.485 290.42 66.446 Q 288.691 61.406 288.691 54.317 Z M 663.281 51.035 L 671.484 27.598 Q 671.895 26.192 672.686 23.614 Q 673.477 21.035 674.326 18.076 Q 675.176 15.117 675.762 12.715 Q 676.348 14.707 677.227 17.608 Q 678.105 20.508 678.984 23.291 Q 679.863 26.074 680.332 27.598 L 688.477 51.035 L 663.281 51.035 Z M 750.703 12.891 Q 760.195 12.891 764.678 16.524 Q 769.16 20.156 769.16 27.598 Q 769.16 33.164 766.758 36.563 Q 764.355 39.961 759.727 41.514 Q 755.098 43.067 748.477 43.067 L 740.801 43.067 L 740.801 12.891 L 750.703 12.891 Z M 452.168 12.949 Q 462.012 12.949 466.729 16.055 Q 471.445 19.16 471.445 26.602 Q 471.445 33.692 467.021 37.324 Q 462.598 40.957 452.813 40.957 L 443.086 40.957 L 443.086 12.949 L 452.168 12.949 Z M 103.184 47.754 Q 103.887 39.61 107.9 35.391 Q 111.914 31.172 118.418 31.172 Q 123.281 31.172 126.416 33.281 Q 129.551 35.391 131.104 39.141 Q 132.656 42.891 132.715 47.754 L 103.184 47.754 Z M 172.324 47.754 Q 173.027 39.61 177.041 35.391 Q 181.055 31.172 187.559 31.172 Q 192.422 31.172 195.557 33.281 Q 198.691 35.391 200.244 39.141 Q 201.797 42.891 201.855 47.754 L 172.324 47.754 Z"/></g></svg>