<svg xmlns="http://www.w3.org/2000/svg" width="128" height="128" viewBox="0 0 144 136">
  <g data-logo-icon="neeto-typeface-logo__icon">
    <path d="M7.3125 111.671V32.2642C7.3125 18.8659 22.1759 10.8112 33.4009 18.1264L102.934 63.4402C109.096 67.4557 109.096 76.4799 102.934 80.4954L33.4009 125.809C22.1759 133.124 7.3125 125.07 7.3125 111.671Z" fill="#5BCC5A"/>
    <path d="M135.562 98.9769V44.9577C135.562 33.6349 122.864 26.9549 113.533 33.3696L69.5912 63.5797C63.7084 67.6242 63.7084 76.3104 69.5912 80.3549L113.533 110.565C122.864 116.98 135.562 110.3 135.562 98.9769Z" fill="#75DC66"/>
    <path d="M85.9215 52.3536L102.935 63.4409C109.096 67.4563 109.096 76.4805 102.935 80.496L85.9222 91.5828L69.5917 80.3555C63.7088 76.3111 63.7088 67.6248 69.5917 63.5804L85.9215 52.3536Z" fill="#0DA84C"/>
  </g>
</svg>
